HIERARCHY
ROOT Hips
{
  OFFSET 0 0.240689 0
  CHANNELS 6 Xposition Yposition Zposition Zrotation Xrotation Yrotation
  JOINT Bip01_Spine0
  {
    OFFSET 0 -24.7459 49.7988
    CHANNELS 6 Xposition Yposition Zposition Zrotation Xrotation Yrotation
    JOINT Bip01_Pelvis
    {
      OFFSET 0 0 0
      CHANNELS 6 Xposition Yposition Zposition Zrotation Xrotation Yrotation
      JOINT Bip01_Spine0_Tail
      {
        OFFSET -6.47486 -3.86022 0
        CHANNELS 6 Xposition Yposition Zposition Zrotation Xrotation Yrotation
        JOINT Bip01_Spine0_Tail1
        {
          OFFSET 10.3837 -0.00825882 0
          CHANNELS 6 Xposition Yposition Zposition Zrotation Xrotation Yrotation
          JOINT Bip01_Spine0_Tail2
          {
            OFFSET 10.3837 -0.00826263 0
            CHANNELS 6 Xposition Yposition Zposition Zrotation Xrotation Yrotation
            JOINT Bip01_Spine0_Tail3
            {
              OFFSET 10.3837 -0.00825882 0
              CHANNELS 6 Xposition Yposition Zposition Zrotation Xrotation Yrotation
              JOINT Bip01_Spine0_Tail4
              {
                OFFSET 10.3837 -0.00826263 0
                CHANNELS 6 Xposition Yposition Zposition Zrotation Xrotation Yrotation
                End Site
                {
                  OFFSET 0 0 0
                }
              }
            }
          }
        }
      }
      JOINT Bip01_R_Thigh
      {
        OFFSET 0 -1.52588e-005 -8.75617
        CHANNELS 6 Xposition Yposition Zposition Zrotation Xrotation Yrotation
        JOINT Bip01_R_Calf
        {
          OFFSET 19.7638 0 0
          CHANNELS 6 Xposition Yposition Zposition Zrotation Xrotation Yrotation
          JOINT Bip01_R_Foot
          {
            OFFSET 18.6534 0 0
            CHANNELS 6 Xposition Yposition Zposition Zrotation Xrotation Yrotation
            JOINT Bip01_R_Toe0
            {
              OFFSET 5.09145 13.9567 0
              CHANNELS 6 Xposition Yposition Zposition Zrotation Xrotation Yrotation
              JOINT Bip01_R_Toe01
              {
                OFFSET 4.28803 0 0
                CHANNELS 6 Xposition Yposition Zposition Zrotation Xrotation Yrotation
                JOINT Bip01_R_Toe02
                {
                  OFFSET 3.85801 0 0
                  CHANNELS 6 Xposition Yposition Zposition Zrotation Xrotation Yrotation
                  End Site
                  {
                    OFFSET 0 0 0
                  }
                }
              }
            }
          }
        }
      }
      JOINT Bip01_L_Thigh
      {
        OFFSET 0 1.52588e-005 8.75617
        CHANNELS 6 Xposition Yposition Zposition Zrotation Xrotation Yrotation
        JOINT Bip01_L_Calf
        {
          OFFSET 19.7638 0 0
          CHANNELS 6 Xposition Yposition Zposition Zrotation Xrotation Yrotation
          JOINT Bip01_L_Foot
          {
            OFFSET 18.6534 0 0
            CHANNELS 6 Xposition Yposition Zposition Zrotation Xrotation Yrotation
            JOINT Bip01_L_Toe0
            {
              OFFSET 5.09144 13.9567 0
              CHANNELS 6 Xposition Yposition Zposition Zrotation Xrotation Yrotation
              JOINT Bip01_L_Toe01
              {
                OFFSET 4.28802 0 0
                CHANNELS 6 Xposition Yposition Zposition Zrotation Xrotation Yrotation
                JOINT Bip01_L_Toe02
                {
                  OFFSET 3.85801 0 0
                  CHANNELS 6 Xposition Yposition Zposition Zrotation Xrotation Yrotation
                  End Site
                  {
                    OFFSET 0 0 0
                  }
                }
              }
            }
          }
        }
      }
      JOINT Bip01_Spine
      {
        OFFSET 9.14835 -0.00640869 -1.1e-005
        CHANNELS 6 Xposition Yposition Zposition Zrotation Xrotation Yrotation
        JOINT Bip01_Spine1
        {
          OFFSET 8.04366 -0.00638199 0
          CHANNELS 6 Xposition Yposition Zposition Zrotation Xrotation Yrotation
          JOINT Bip01_Spine2
          {
            OFFSET 8.04367 -0.00639343 0
            CHANNELS 6 Xposition Yposition Zposition Zrotation Xrotation Yrotation
            JOINT Bip01_Spine3
            {
              OFFSET 8.04304 -0.00831222 0
              CHANNELS 6 Xposition Yposition Zposition Zrotation Xrotation Yrotation
              JOINT Bip01_Neck
              {
                OFFSET 10.6685 1.06813 0
                CHANNELS 6 Xposition Yposition Zposition Zrotation Xrotation Yrotation
                JOINT Bip01_R_Clavicle
                {
                  OFFSET -3.21661 -4.89635 -9.04802
                  CHANNELS 6 Xposition Yposition Zposition Zrotation Xrotation Yrotation
                  JOINT Bip01_R_UpperArm
                  {
                    OFFSET 19.0492 0 0
                    CHANNELS 6 Xposition Yposition Zposition Zrotation Xrotation Yrotation
                    JOINT Bip01_R_Forearm
                    {
                      OFFSET 10.3706 0 0
                      CHANNELS 6 Xposition Yposition Zposition Zrotation Xrotation Yrotation
                      JOINT Bip01_R_Hand
                      {
                        OFFSET 22.8632 0 0
                        CHANNELS 6 Xposition Yposition Zposition Zrotation Xrotation Yrotation
                        JOINT Bip01_R_Finger0
                        {
                          OFFSET 6.48259 0.103651 0.504496
                          CHANNELS 6 Xposition Yposition Zposition Zrotation Xrotation Yrotation
                          JOINT Bip01_R_Finger01
                          {
                            OFFSET 3.66847 0 0
                            CHANNELS 6 Xposition Yposition Zposition Zrotation Xrotation Yrotation
                            End Site
                            {
                              OFFSET 0 0 0
                            }
                          }
                        }
                      }
                    }
                  }
                }
                JOINT Bip01_L_Clavicle
                {
                  OFFSET -3.21661 -4.89641 9.04797
                  CHANNELS 6 Xposition Yposition Zposition Zrotation Xrotation Yrotation
                  JOINT Bip01_L_UpperArm
                  {
                    OFFSET 19.0492 0 0
                    CHANNELS 6 Xposition Yposition Zposition Zrotation Xrotation Yrotation
                    JOINT Bip01_L_Forearm
                    {
                      OFFSET 10.3706 0 0
                      CHANNELS 6 Xposition Yposition Zposition Zrotation Xrotation Yrotation
                      JOINT Bip01_L_Hand
                      {
                        OFFSET 22.8631 0 0
                        CHANNELS 6 Xposition Yposition Zposition Zrotation Xrotation Yrotation
                        JOINT Bip01_L_Finger0
                        {
                          OFFSET 6.48257 0.103655 -0.504492
                          CHANNELS 6 Xposition Yposition Zposition Zrotation Xrotation Yrotation
                          JOINT Bip01_L_Finger01
                          {
                            OFFSET 3.66844 0 0
                            CHANNELS 6 Xposition Yposition Zposition Zrotation Xrotation Yrotation
                            End Site
                            {
                              OFFSET 0 0 0
                            }
                          }
                        }
                      }
                    }
                  }
                }
                JOINT Bip01_Neck1
                {
                  OFFSET 7.52459 -0.00656509 0
                  CHANNELS 6 Xposition Yposition Zposition Zrotation Xrotation Yrotation
                  JOINT Bip01_Neck2
                  {
                    OFFSET 8.4783 -0.00588226 0
                    CHANNELS 6 Xposition Yposition Zposition Zrotation Xrotation Yrotation
                    JOINT Bip01_Head
                    {
                      OFFSET 8.41606 0 0
                      CHANNELS 6 Xposition Yposition Zposition Zrotation Xrotation Yrotation
                      JOINT EyesBlue
                      {
                        OFFSET 0 0 0
                        CHANNELS 6 Xposition Yposition Zposition Zrotation Xrotation Yrotation
                        JOINT EyesBlue_2
                        {
                          OFFSET 0 -0.500007 0
                          CHANNELS 6 Xposition Yposition Zposition Zrotation Xrotation Yrotation
                          End Site
                          {
                            OFFSET 0 0 0
                          }
                        }
                      }
                      JOINT Bip01_Head2_Eyeleds
                      {
                        OFFSET 6.52751 7.61746 2.2e-005
                        CHANNELS 6 Xposition Yposition Zposition Zrotation Xrotation Yrotation
                        End Site
                        {
                          OFFSET 0 0 0
                        }
                      }
                      JOINT Bip01_Head_Muzzle
                      {
                        OFFSET 2.88628 13.9448 3.88994
                        CHANNELS 6 Xposition Yposition Zposition Zrotation Xrotation Yrotation
                        End Site
                        {
                          OFFSET 0 0 0
                        }
                      }
                      JOINT Bip01_Head1_Jaw
                      {
                        OFFSET 0.271065 1.32405 0
                        CHANNELS 6 Xposition Yposition Zposition Zrotation Xrotation Yrotation
                        JOINT _Bip01_Head11_TungeControler
                        {
                          OFFSET 4.61616 5.82872 0
                          CHANNELS 6 Xposition Yposition Zposition Zrotation Xrotation Yrotation
                          JOINT _Bip01_Ponytail3_tunge
                          {
                            OFFSET 5.17785 2.98805 0
                            CHANNELS 6 Xposition Yposition Zposition Zrotation Xrotation Yrotation
                            JOINT Bip01_Ponytail31
                            {
                              OFFSET 5.57569 0 0
                              CHANNELS 6 Xposition Yposition Zposition Zrotation Xrotation Yrotation
                              JOINT Bip01_Ponytail32
                              {
                                OFFSET 2.93165 0 0
                                CHANNELS 6 Xposition Yposition Zposition Zrotation Xrotation Yrotation
                                JOINT Bip01_Ponytail3Nub
                                {
                                  OFFSET 3.30155 0 0
                                  CHANNELS 6 Xposition Yposition Zposition Zrotation Xrotation Yrotation
                                  End Site
                                  {
                                    OFFSET 0 0 0
                                  }
                                }
                              }
                            }
                          }
                        }
                        JOINT Bip01_Head_JawNub
                        {
                          OFFSET 15.5776 -0.000389099 0
                          CHANNELS 6 Xposition Yposition Zposition Zrotation Xrotation Yrotation
                          End Site
                          {
                            OFFSET 0 0 0
                          }
                        }
                      }
                      JOINT Bip01_Ponytail2
                      {
                        OFFSET 9.40334 1.03973 -6.51764
                        CHANNELS 6 Xposition Yposition Zposition Zrotation Xrotation Yrotation
                        JOINT Bip01_Ponytail21
                        {
                          OFFSET 2.77018 -0.00640106 1.33514e-005
                          CHANNELS 6 Xposition Yposition Zposition Zrotation Xrotation Yrotation
                          End Site
                          {
                            OFFSET 0 0 0
                          }
                        }
                      }
                      JOINT Bip01_Ponytail1
                      {
                        OFFSET 9.40368 1.03969 6.51768
                        CHANNELS 6 Xposition Yposition Zposition Zrotation Xrotation Yrotation
                        JOINT Bip01_Ponytail11
                        {
                          OFFSET 2.77018 -0.00640487 0
                          CHANNELS 6 Xposition Yposition Zposition Zrotation Xrotation Yrotation
                          End Site
                          {
                            OFFSET 0 0 0
                          }
                        }
                      }
                    }
                  }
                }
              }
            }
          }
        }
      }
    }
  }
}
MOTION
Frames:	4
Frame Time:	0.0333333
0 0 -1e-006 -0 -90 -0 -0.261757 -24.7459 50.4639 90.0009 -3.50835e-015 90 0 0 0 -89.9988 -0.000821962 -93.9 -6.4592 -3.86073 0.440249 133.258 2.84361 -2.67131 10.3792 -0.007064 6.29999e-005 -29.76 0.000735151 0.00126763 10.3834 -0.00811 0.000134 0.500014 0.000102998 0.000101992 10.3851 -0.008014 7.49999e-005 13.1329 0.00234189 0.00185878 10.3847 -0.008098 0.000146 9.58539 0.00163287 0.00137983 9e-006 -1.50004e-005 -8.75617 -97.4887 -11.9751 173.961 19.7638 1e-006 6.03961e-014 -60.8871 -0.000156665 -0.00058874 18.6534 0 5.32907e-015 -27.4935 1.40137 7.55436 5.09143 13.9567 5.40203e-006 114.82 3.10092 1.66768 4.288 -1e-006 -4.61853e-014 64.999 0.00215279 0.000473167 3.85799 1.24345e-014 0 -45 -1.36963e-005 5.33519e-006 -1.5e-005 1.10004e-005 8.75617 -110.948 -4.43258 -179.209 19.7638 -5.32907e-015 8.88179e-015 -63.6012 0.000735188 0.00314288 18.6534 7e-006 1.58096e-013 -25.5 1.14717 -5.71907 5.09144 13.9567 -1.53114e-006 115 0.000729019 4.99923 4.288 3.55272e-015 1e-006 65 -3.93025e-006 2.34517e-006 3.85799 4.26326e-014 -1e-006 -45 -6.40038e-006 -1.02291e-005 9.12708 -0.006273 -0.622045 -0.000871583 0.000656424 3.9009 8.04366 0.000242192 -0.00759806 0.0473409 -0.000102605 0.108199 8.0436 -0.006401 0.000107979 0.000399491 0.000506149 0.054908 8.04292 -0.008224 9.98634e-006 -4.29875 0.00151845 0.0543191 10.67 1.06796 7.2857e-007 0.69085 1.30259e-005 1.0072e-005 -4.30512 -3.97468 -9.04796 179.256 -85.4185 114.993 19.0492 7.10543e-015 -1.42109e-014 89.7451 8.41649 -103.465 10.3706 1e-006 5.63994e-014 -58.5377 0.00064944 0.0023011 22.8631 3e-006 -2.84217e-014 -16.6197 -0.171713 2.45015 6.48255 0.103651 0.504497 -78.3093 -0.300609 -15.494 3.66843 1e-006 1e-006 34.6071 7.47012e-006 1.18777e-005 -4.30502 -3.97455 9.04797 179.261 85.4168 -114.997 19.0492 -4.9738e-014 3e-006 88.6336 -8.316 99.4945 10.3706 2e-006 -8.61534e-014 -58.5366 0.0001581 0.000564006 22.8631 -1e-006 6.21725e-015 -16.4593 -8.55739 -2.45227 6.48255 0.103651 -0.504495 -75.9426 0.956694 15.4686 3.66843 1e-006 -1e-006 40.107 3.37565e-005 -2.36441e-005 7.52555 -0.006614 5.1002e-005 -4.48522 0.00160724 0.00174764 8.47686 -0.00645 8.594e-010 15.6197 8.69617e-006 -5.09736e-005 8.41605 3e-006 4.11726e-013 -74.0215 0.196374 -0.0877987 3.97904e-013 3e-006 -3e-006 -23.1099 1.37701e-015 90 -1.99627e-008 -0.5 -4.69577e-006 83.2482 89.9999 6.75184 0 0 0 -113.553 1.52588e-005 -179.996 2.88629 13.9448 3.88993 -22.9892 1.37022e-015 90 0 0 0 -85.3358 -7.01671e-015 -180 0 0 0 -120.289 -2.773e-006 -1.82494e-005 0 0 0 133.74 -2.44197e-005 3.41701e-006 0 0 0 -0.168468 4.10741e-008 1.09985e-008 0 0 0 -22.6319 1.84787e-006 1.4236e-006 0 0 0 -26.1943 3.41622e-007 6.91588e-007 15.5776 -0.000389001 -7.00002e-006 6.36111e-015 5.82377e-019 3.88251e-019 9.40334 1.03972 -6.51764 -19.0867 17.2452 20.3009 2.77015 -0.00640101 7.00146e-006 2.43522 0.00173054 0.00166138 9.40368 1.03968 6.51767 -19.0868 -17.2452 -20.3008 2.77018 -0.00639301 8.99871e-006 2.43572 0.00080064 0.000766904 
0 0 -1e-006 -0 -90 -0 -0.741564 -24.7722 49.5889 91.2933 -0.587989 88.279 0 0 0 -90.0793 -0.00307047 -93.8771 -6.46034 -3.86011 0.431831 136.86 6.59467 0.692115 10.3792 -0.007064 6.29999e-005 -29.8752 0.109749 1.89143 10.3834 -0.00811 0.000134 -2.45028 -2.58917 2.83516 10.3851 -0.008014 7.5e-005 10.352 -2.6947 2.14808 10.3847 -0.008098 0.000146 7.40301 -2.72162 2.88014 9e-006 -1.50005e-005 -8.75617 -103.642 -12.4026 171.296 19.7638 1e-006 6.39489e-014 -67.2021 -0.000116686 -0.000590779 18.6534 7.10543e-015 -3.55271e-015 -17.3729 2.70621 7.74118 5.09143 13.9567 5.35142e-006 113.832 3.09913 1.61022 4.288 -1e-006 -7.10543e-014 63.397 0.00214282 0.000532255 3.85799 7.10543e-015 3.55271e-015 -45 -1.69862e-005 2.73702e-006 -1.5e-005 1.10005e-005 8.75617 -111.373 -4.18659 -179.367 19.7638 0 1.77636e-015 -68.8565 0.000579863 0.00314458 18.6534 7e-006 1.3145e-013 -21.7094 1.25668 -4.12536 5.09144 13.9567 -1.08539e-006 115 0.000727368 4.99923 4.288 -3.55272e-015 1e-006 64.7986 -2.14378e-006 1.53188e-006 3.85799 3.90799e-014 -1e-006 -45 -8.80602e-006 -1.12288e-005 9.12735 -0.00674822 -0.618607 0.395095 0.946099 4.99844 8.04366 -0.006404 5.96448e-009 0.772652 0.492419 0.894136 8.0436 -0.006401 0.000108004 1.13062 0.405504 1.89686 8.04292 -0.008224 9.99673e-006 -3.35938 0.424893 2.9295 10.67 1.06796 6.71578e-007 0.579994 0.0105934 1.04585 -4.13049 -3.98457 -9.12413 -171.687 -83.2611 124.009 19.0492 -3.55271e-015 0 82.4733 6.08142 -99.0071 10.3706 1e-006 1.11022e-013 -66.7671 0.000466158 0.00230699 22.8631 3e-006 5.90639e-014 -16.8597 -0.796461 5.85232 6.48255 0.103651 0.504497 -73.9706 -0.560508 -15.1432 3.66843 1e-006 1e-006 34.6071 -8.86619e-006 1.90355e-005 -4.46229 -3.98153 8.96782 168.923 84.2265 -104.491 19.0492 -1.77636e-013 3e-006 85.634 -7.33232 100.996 10.3706 2e-006 5.68435e-014 -60.9687 0.000144882 0.000567752 22.8631 -1e-006 -2.93099e-014 -17.4522 -13.3516 -2.65124 6.48255 0.103651 -0.504495 -76.4681 2.85177 15.4865 3.66843 1e-006 -1e-006 40.107 2.97881e-005 -2.02389e-005 7.52555 -0.006614 5.10015e-005 -3.76428 2.17929 3.37963 8.47686 -0.00645 1.7606e-009 15.5087 -1.17683e-005 -4.88008e-005 8.41605 3e-006 1.07647e-012 -77.6544 1.15796 -4.44589 4.83169e-013 3e-006 -3e-006 -23.1099 1.37701e-015 90 -3.67378e-008 -0.5 -4.69526e-006 -84.4056 89.9999 174.406 0 0 0 -113.549 -0.000106812 -180 2.88629 13.9448 3.88993 -22.9892 1.37022e-015 90 0 0 0 -85.6144 -7.01671e-015 -180 0 0 0 -119.577 -1.98414e-005 -9.67442e-006 0 0 0 133.048 0.00779568 -0.543838 0 0 0 0.0314635 6.3185e-008 -2.19637e-009 0 0 0 -22.8482 -5.67023e-006 1.52846e-006 0 0 0 -26.1943 3.69848e-006 4.10419e-006 15.5776 -0.000389001 -7.00008e-006 -3.18055e-015 -3.97569e-016 1.59028e-015 9.40334 1.03972 -6.51764 -19.1134 16.0535 20.3487 2.77015 -0.00640101 7.00162e-006 2.43522 0.00173055 0.00166143 9.40368 1.03968 6.51767 -19.1135 -16.0535 -20.3486 2.77018 -0.00639301 8.99895e-006 2.43572 0.000800674 0.000766997 
0 0 -1e-006 -0 -90 -0 -1.27217 -24.8019 48.6202 92.7285 -0.491687 86.1992 0 0 0 -90.2491 -0.00861063 -93.9451 -6.46142 -3.85916 0.427489 140.401 10.774 3.92921 10.3792 -0.007064 6.29998e-005 -30.0143 0.32397 3.91024 10.3834 -0.00811 0.000134 -5.55588 -5.3731 5.64254 10.3851 -0.008014 7.5e-005 7.40081 -5.53444 4.24404 10.3847 -0.008098 0.000146 5.10689 -5.61083 5.77311 9e-006 -1.49993e-005 -8.75617 -110.109 -12.6817 168.513 19.7638 1e-006 7.10543e-014 -73.9413 -7.34945e-005 -0.000591369 18.6534 0 -3.55271e-015 -6.61492 4.02278 7.81807 5.09143 13.9567 4.77327e-006 111.439 3.09889 1.47023 4.288 -1e-006 -8.52652e-014 59.5195 0.00210353 0.000674683 3.85799 7.10543e-015 0 -45 -1.73106e-005 1.96436e-006 -1.5e-005 1.09993e-005 8.75617 -112.213 -4.02984 -179.544 19.7638 -5.32907e-015 7.10543e-015 -74.7466 0.000412579 0.00314431 18.6534 7e-006 1.06581e-013 -18.4971 1.25949 -2.34885 5.09144 13.9567 -6.6645e-007 115 0.000725693 4.99922 4.288 7.10543e-015 1e-006 64.2361 -1.71784e-007 6.39496e-007 3.85799 -1.42109e-014 -1e-006 -45 -1.1413e-005 -1.23317e-005 9.12664 -0.00760003 -0.629554 0.752388 2.07878 6.23816 8.04366 -0.006404 3.22013e-009 1.59699 1.03538 1.7919 8.0436 -0.006401 0.000108003 2.36562 0.895997 3.92699 8.04292 -0.008224 9.99692e-006 -2.34591 0.948016 6.10369 10.67 1.06796 1.01569e-006 0.465379 0.017278 2.12516 -3.9426 -3.99473 -9.20215 -166.972 -80.7866 128.722 19.0492 5.32907e-015 7.10543e-015 75.3463 4.40774 -93.2538 10.3706 1e-006 1.69198e-013 -75.2497 0.000287451 0.0023095 22.8631 3e-006 1.63425e-013 -16.5209 -1.57735 9.42933 6.48255 0.103651 0.504497 -69.1645 -0.817743 -14.734 3.66843 1e-006 1e-006 34.6071 -2.47106e-005 2.62208e-005 -4.62865 -3.98927 8.87926 162.066 82.7802 -97.4342 19.0492 -2.66454e-013 3e-006 82.0123 -6.46293 102.496 10.3706 2e-006 2.41585e-013 -64.1021 0.000128362 0.000573048 22.8631 -1e-006 -5.50671e-014 -18.6689 -18.5585 -3.23445 6.48255 0.103651 -0.504495 -77.0515 4.94893 15.5274 3.66843 1e-006 -1e-006 40.107 2.70492e-005 -1.77023e-005 7.52555 -0.006614 5.09997e-005 -3.13858 4.54761 6.96425 8.47686 -0.00645 1.73667e-010 15.394 4.05517e-006 -5.25248e-005 8.41605 3e-006 9.69891e-013 -81.8236 3.32448 -8.57703 5.68434e-013 3e-006 -3e-006 -23.1099 1.37701e-015 90 -5.27083e-008 -0.5 -4.69409e-006 -79.4099 89.9999 169.41 0 0 0 -113.549 -4.57764e-005 -180 2.88629 13.9448 3.88993 -22.9892 1.37022e-015 90 0 0 0 -85.893 1.52588e-005 -180 0 0 0 -118.865 -3.03031e-005 -2.65995e-006 0 0 0 132.357 0.0156278 -1.08767 0 0 0 0.231397 6.9002e-007 -6.28559e-009 0 0 0 -23.0644 -1.55821e-005 3.39399e-007 0 0 0 -26.1943 6.48492e-006 7.23005e-006 15.5776 -0.000389001 -7.00014e-006 3.18055e-015 -2.38542e-015 1.59028e-015 9.40334 1.03972 -6.51764 -19.1408 14.7694 20.3994 2.77015 -0.00640101 7.00174e-006 2.43522 0.00173051 0.00166148 9.40368 1.03968 6.51767 -19.1409 -14.7694 -20.3993 2.77018 -0.00639301 8.99919e-006 2.43572 0.000800714 0.000767085 
0 0 -1e-006 -0 -90 -0 -1.81903 -24.8324 47.6215 94.1917 -0.832781 84.1509 0 0 0 -90.4661 -0.0152239 -94.0614 -6.46248 -3.85812 0.425443 143.745 15.1445 6.91936 10.3792 -0.007064 6.29998e-005 -30.1704 0.586677 5.94797 10.3834 -0.00811 0.000134 -8.61254 -8.26278 8.29999 10.3851 -0.008014 7.5e-005 4.46618 -8.4317 6.19529 10.3847 -0.008098 0.000146 2.86717 -8.57397 8.55555 9.00001e-006 -1.49969e-005 -8.75617 -116.59 -12.7346 165.72 19.7638 1e-006 8.88179e-014 -80.7406 -5.76947e-005 -0.000585197 18.6534 0 -3.55271e-015 4.24064 5.27562 7.78632 5.09143 13.9567 4.31468e-006 107.906 3.11036 1.26292 4.288 -1e-006 -9.59233e-014 53.7892 0.00202685 0.000880234 3.85799 1.77636e-014 0 -45 -1.68919e-005 1.33736e-006 -1.5e-005 1.09969e-005 8.75617 -113.315 -3.9209 -179.731 19.7638 5.32907e-015 1.77636e-015 -80.7532 0.000247618 0.00314315 18.6534 7e-006 6.57252e-014 -16.0294 1.18655 -0.525003 5.09144 13.9567 -2.89513e-007 115 0.00072414 4.99922 4.288 0 1e-006 63.3511 1.97448e-006 -2.14101e-007 3.85799 -4.4409e-014 -1e-006 -45 -1.39628e-005 -1.35552e-005 9.12542 -0.00863875 -0.648238 1.0904 3.29733 7.55407 8.04366 -0.006404 2.45494e-009 2.46347 1.62621 2.73709 8.0436 -0.006401 0.000108002 3.62014 1.4459 6.00921 8.04292 -0.008224 9.99684e-006 -1.33306 1.54411 9.3672 10.67 1.06796 1.1507e-006 0.34627 0.0196516 3.24647 -3.75114 -4.00462 -9.2774 -164.313 -78.2049 131.423 19.0492 5.32907e-015 -1.42109e-014 69.074 -0.498982 -87.957 10.3706 1e-006 2.50022e-013 -83.2619 0.000125929 0.00231267 22.8631 3e-006 2.80221e-013 -15.4368 -2.25277 12.8255 6.48255 0.103651 0.504497 -64.2077 -1.0475 -14.2914 3.66843 1e-006 1e-006 34.6071 -6.96972e-005 5.37062e-005 -4.79511 -3.99743 8.78661 157.626 81.2261 -92.7672 19.0492 -3.05533e-013 3e-006 78.0305 -5.77384 103.79 10.3706 2e-006 4.65406e-013 -67.8762 0.000108949 0.000579103 22.8631 -1e-006 -7.4607e-014 -20.1151 -23.7826 -4.2795 6.48255 0.103651 -0.504495 -77.657 7.11107 15.5919 3.66843 1e-006 -1e-006 40.107 2.55535e-005 -1.6013e-005 7.52555 -0.006614 5.09991e-005 -2.65834 6.97667 10.5777 8.47686 -0.00645 -5.04454e-010 15.2748 1.25277e-005 -5.40645e-005 8.41605 3e-006 8.52652e-013 -86.0514 6.52589 -11.8911 6.39488e-013 3e-006 -3e-006 -23.1099 1.37701e-015 90 -6.55702e-008 -0.5 -4.69238e-006 -74.1074 90 164.107 0 0 0 -113.549 -3.05176e-005 -180 2.88629 13.9448 3.88993 -22.9892 1.37022e-015 90 0 0 0 -86.1717 1.52588e-005 -180 0 0 0 -118.153 -3.38972e-005 2.97773e-007 0 0 0 131.666 0.0234577 -1.63151 0 0 0 0.43133 1.11205e-006 7.16719e-010 0 0 0 -23.2807 -2.19106e-005 -4.77149e-007 0 0 0 -26.1943 7.53644e-006 9.18218e-006 15.5776 -0.000389001 -7.00016e-006 3.18055e-015 7.95139e-016 -0 9.40334 1.03972 -6.51764 -19.1685 13.4053 20.4522 2.77015 -0.00640101 7.00179e-006 2.43522 0.00173042 0.0016615 9.40368 1.03968 6.51767 -19.1686 -13.4053 -20.4521 2.77018 -0.00639301 8.99938e-006 2.43572 0.000800754 0.000767158 
